<?xml version="1.0" encoding="iso-8859-1"?>
<!DOCTYPE svg PUBLIC "-//W3C//DTD SVG 1.1//EN" "http://www.w3.org/Graphics/SVG/1.1/DTD/svg11.dtd">
<svg 
 version="1.1" xmlns="http://www.w3.org/2000/svg" xmlns:xlink="http://www.w3.org/1999/xlink" x="0px" y="0px" width="512px"
	 height="512px" viewBox="0 0 512 512" style="enable-background:new 0 0 512 512;" xml:space="preserve"
><g id="7935ec95c421cee6d86eb22ecd138aa1"><g></g><g fill="#c6c6c6"><path style="display: inline;" d="M379.346,140.364H220.758v-34.14h158.588V140.364z M379.346,193.776H220.758v35.242h158.588
		V193.776z M379.346,281.88H220.758v35.242h158.588V281.88z M379.346,369.984H220.758v35.241h158.588V369.984z M167.896,106.775
		h-35.242v34.14h35.242V106.775z M167.896,194.327h-35.242v35.242h35.242V194.327z M167.896,282.431h-35.242v35.241h35.242V282.431z
		 M167.896,370.534h-35.242v35.242h35.242V370.534z M432.207,35.742H79.793V476.26h352.414V35.742 M467.448,0.5v511H44.551V0.5
		H467.448L467.448,0.5z"></path></g></g></svg>