<?xml version="1.0" encoding="iso-8859-1"?>
<!DOCTYPE svg PUBLIC "-//W3C//DTD SVG 1.1//EN" "http://www.w3.org/Graphics/SVG/1.1/DTD/svg11.dtd">
<svg 
 version="1.1" xmlns="http://www.w3.org/2000/svg" xmlns:xlink="http://www.w3.org/1999/xlink" x="0px" y="0px" width="512px"
	 height="512px" viewBox="0 0 512 512" style="enable-background:new 0 0 512 512;" xml:space="preserve"
><g id="7935ec95c421cee6d86eb22ecd1546fc"><g></g><path style="display: inline; fill:#aaaaaa;" d="M175.413,359.146L102.4,397.944l13.946-82.169l-59.069-58.193l81.633-11.991
		l36.503-74.757l36.503,74.757l81.633,11.991l-59.069,58.193l13.946,82.169L175.413,359.146z M454.419,141.498
		c-0.679-2.694-2.586-5.755-5.833-9.001L322.725,6.636c-3.833-3.829-7.404-5.792-10.42-6.069V0.5H76.203
		c-10.409,0-18.926,8.517-18.926,18.925v113.556h37.852v-94.63h208.187v86.11c0,15.092,12.349,27.446,27.445,27.446h86.109v321.741
		H95.129v-37.852H57.277v56.777c0,10.409,8.517,18.926,18.926,18.926h359.594c10.408,0,18.926-8.517,18.926-18.926V141.498H454.419z
		"></path></g></svg>